<svg xmlns="http://www.w3.org/2000/svg" viewBox="0 0 800 450" role="img" aria-label="Horror Arcade artwork">
  <defs>
    <linearGradient id="bg" x1="0" y1="0" x2="1" y2="1"><stop offset="0" stop-color="#101014"/><stop offset="1" stop-color="#24080a"/></linearGradient>
    <radialGradient id="glow" cx="70%" cy="20%" r="70%"><stop offset="0" stop-color="#f5c879" stop-opacity=".38"/><stop offset="1" stop-color="#000" stop-opacity="0"/></radialGradient>
  </defs>
  <rect width="800" height="450" fill="url(#bg)"/>
  <rect width="800" height="450" fill="url(#glow)"/>
  <g opacity=".16" stroke="#f1c878" stroke-width="2"> <path d="M60 72h680M60 378h680M96 40v370M704 40v370"/> </g>
  <g filter="drop-shadow(0 28px 30px rgba(0,0,0,.45))"><path d="M400 102c78 0 142 58 142 129 0 95-87 154-142 154s-142-59-142-154c0-71 64-129 142-129Z" fill="#f2ead9"/><ellipse cx="350" cy="222" rx="28" ry="42" fill="#111217"/><ellipse cx="450" cy="222" rx="28" ry="42" fill="#111217"/><path d="M365 305c22 20 48 20 70 0" fill="none" stroke="#111217" stroke-width="13" stroke-linecap="round"/></g>
</svg>
