<svg xmlns="http://www.w3.org/2000/svg" viewBox="0 0 800 450" role="img" aria-label="Quote Arcade artwork">
  <defs>
    <linearGradient id="bg" x1="0" y1="0" x2="1" y2="1"><stop offset="0" stop-color="#221626"/><stop offset="1" stop-color="#0c0d12"/></linearGradient>
    <radialGradient id="glow" cx="70%" cy="20%" r="70%"><stop offset="0" stop-color="#f5c879" stop-opacity=".38"/><stop offset="1" stop-color="#000" stop-opacity="0"/></radialGradient>
  </defs>
  <rect width="800" height="450" fill="url(#bg)"/>
  <rect width="800" height="450" fill="url(#glow)"/>
  <g opacity=".16" stroke="#f1c878" stroke-width="2"> <path d="M60 72h680M60 378h680M96 40v370M704 40v370"/> </g>
  <g filter="drop-shadow(0 28px 30px rgba(0,0,0,.45))"><path d="M290 170h95v88c0 76-40 120-112 138l-20-42c45-14 66-40 66-76h-29V170Zm170 0h95v88c0 76-40 120-112 138l-20-42c45-14 66-40 66-76h-29V170Z" fill="#e7c98d"/></g>
</svg>
