<svg xmlns="http://www.w3.org/2000/svg" viewBox="0 0 800 450" role="img" aria-label="Zombie Arcade artwork">
  <defs>
    <linearGradient id="bg" x1="0" y1="0" x2="1" y2="1"><stop offset="0" stop-color="#0d1d13"/><stop offset="1" stop-color="#1f1710"/></linearGradient>
    <radialGradient id="glow" cx="70%" cy="20%" r="70%"><stop offset="0" stop-color="#f5c879" stop-opacity=".38"/><stop offset="1" stop-color="#000" stop-opacity="0"/></radialGradient>
  </defs>
  <rect width="800" height="450" fill="url(#bg)"/>
  <rect width="800" height="450" fill="url(#glow)"/>
  <g opacity=".16" stroke="#f1c878" stroke-width="2"> <path d="M60 72h680M60 378h680M96 40v370M704 40v370"/> </g>
  <g filter="drop-shadow(0 28px 30px rgba(0,0,0,.45))"><path d="M320 322c-36-38-24-93 20-108v-76c0-18 14-32 32-32s32 14 32 32v68l30-48c10-16 30-21 46-11s21 30 11 46l-60 99c-23 38-76 50-111 30Z" fill="#94bf62"/><path d="M404 140v118" stroke="#173013" stroke-width="13" stroke-linecap="round"/></g>
</svg>
