<?xml version="1.0" encoding="UTF-8" standalone="no"?>
<svg
   width="300"
   height="300"
   viewBox="0 0 300 300"
   fill="none"
   version="1.1"
   id="svg1"
   xmlns="http://www.w3.org/2000/svg"
   xmlns:svg="http://www.w3.org/2000/svg">
  <defs
     id="defs1" />
  <g
     id="g8"
     transform="scale(5)">
    <path
       id="path3"
       style="fill:#ffffff;fill-rule:evenodd;stroke-width:37.7953;stroke-linecap:square;paint-order:stroke markers fill"
       d="M 60,30 A 30,30 0 0 1 30,60 30,30 0 0 1 0,30 30,30 0 0 1 30,0 30,30 0 0 1 60,30 Z" />
    <path
       id="path4"
       style="display:inline;fill:#ffa301;fill-rule:evenodd;stroke-width:41.6739;stroke-linecap:square;paint-order:stroke markers fill"
       d="m 21.788756,34.483791 a 8.3043947,8.3043947 0 0 1 -8.304394,8.304395 8.3043947,8.3043947 0 0 1 -8.3043951,-8.304395 8.3043947,8.3043947 0 0 1 8.3043951,-8.304394 8.3043947,8.3043947 0 0 1 8.304394,8.304394 z" />
    <path
       id="path4-1"
       style="display:inline;fill:#e0c140;fill-rule:evenodd;stroke-width:41.6739;stroke-linecap:square;paint-order:stroke markers fill"
       d="M 28.073905,15.350906 A 8.3043947,8.3043947 0 0 1 19.76951,23.655301 8.3043947,8.3043947 0 0 1 11.465116,15.350906 8.3043947,8.3043947 0 0 1 19.76951,7.0465117 8.3043947,8.3043947 0 0 1 28.073905,15.350906 Z" />
    <path
       id="path4-1-6"
       style="display:inline;fill:#0275c9;fill-rule:evenodd;stroke-width:41.6739;stroke-linecap:square;paint-order:stroke markers fill"
       d="m 48.337014,15.350906 a 8.3043947,8.3043947 0 0 1 -8.304395,8.304395 8.3043947,8.3043947 0 0 1 -8.304394,-8.304395 8.3043947,8.3043947 0 0 1 8.304394,-8.3043943 8.3043947,8.3043947 0 0 1 8.304395,8.3043943 z" />
    <path
       id="path4-1-6-1"
       style="display:inline;fill:#f04025;fill-rule:evenodd;stroke-width:41.6739;stroke-linecap:square;paint-order:stroke markers fill"
       d="m 54.520093,34.492123 a 8.3043947,8.3043947 0 0 1 -8.304395,8.304394 8.3043947,8.3043947 0 0 1 -8.304394,-8.304394 8.3043947,8.3043947 0 0 1 8.304394,-8.304395 8.3043947,8.3043947 0 0 1 8.304395,8.304395 z" />
    <path
       id="path4-1-6-1-9"
       style="display:inline;fill:#875983;fill-rule:evenodd;stroke-width:41.6739;stroke-linecap:square;paint-order:stroke markers fill"
       d="m 38.200215,46.400467 a 8.3043947,8.3043947 0 0 1 -8.304394,8.304395 8.3043947,8.3043947 0 0 1 -8.304395,-8.304395 8.3043947,8.3043947 0 0 1 8.304395,-8.304395 8.3043947,8.3043947 0 0 1 8.304394,8.304395 z" />
    <path
       id="circle4"
       style="display:inline;fill:#000000;fill-rule:evenodd;stroke-width:41.6739;stroke-linecap:square;paint-order:stroke markers fill"
       d="M 21.266214,34.6805 A 8.3043947,8.3043947 0 0 1 12.96182,42.984895 8.3043947,8.3043947 0 0 1 4.6574249,34.6805 8.3043947,8.3043947 0 0 1 12.96182,26.376105 8.3043947,8.3043947 0 0 1 21.266214,34.6805 Z"
       transform="matrix(-0.0927487,-0.25520404,0.25520404,-0.0927487,24.710211,39.992819)" />
    <path
       id="circle5"
       style="display:inline;fill:#000000;fill-rule:evenodd;stroke-width:41.6739;stroke-linecap:square;paint-order:stroke markers fill"
       d="m 29.331117,14.905709 a 8.3043947,8.3043947 0 0 1 -8.304395,8.304395 8.3043947,8.3043947 0 0 1 -8.304395,-8.304395 8.3043947,8.3043947 0 0 1 8.304395,-8.3043945 8.3043947,8.3043947 0 0 1 8.304395,8.3043945 z"
       transform="matrix(-0.0927487,-0.25520404,0.25520404,-0.0927487,24.710211,39.992819)" />
    <path
       id="circle6"
       style="display:inline;fill:#000000;fill-rule:evenodd;stroke-width:41.6739;stroke-linecap:square;paint-order:stroke markers fill"
       d="m 49.894624,16.561348 a 8.3043947,8.3043947 0 0 1 -8.304395,8.304395 8.3043947,8.3043947 0 0 1 -8.304395,-8.304395 8.3043947,8.3043947 0 0 1 8.304395,-8.3043948 8.3043947,8.3043947 0 0 1 8.304395,8.3043948 z"
       transform="matrix(-0.0927487,-0.25520404,0.25520404,-0.0927487,24.710211,39.992819)" />
    <path
       id="circle7"
       style="display:inline;fill:#000000;fill-rule:evenodd;stroke-width:41.6739;stroke-linecap:square;paint-order:stroke markers fill"
       d="m 55.348302,36.468456 a 8.3043947,8.3043947 0 0 1 -8.304395,8.304395 8.3043947,8.3043947 0 0 1 -8.304395,-8.304395 8.3043947,8.3043947 0 0 1 8.304395,-8.304394 8.3043947,8.3043947 0 0 1 8.304395,8.304394 z"
       transform="matrix(-0.0927487,-0.25520404,0.25520404,-0.0927487,24.710211,39.992819)" />
    <path
       id="circle8"
       style="display:inline;fill:#000000;fill-rule:evenodd;stroke-width:41.6739;stroke-linecap:square;paint-order:stroke markers fill"
       d="m 37.300189,47.813145 a 8.3043947,8.3043947 0 0 1 -8.304395,8.304394 8.3043947,8.3043947 0 0 1 -8.304394,-8.304394 8.3043947,8.3043947 0 0 1 8.304394,-8.304395 8.3043947,8.3043947 0 0 1 8.304395,8.304395 z"
       transform="matrix(-0.0927487,-0.25520404,0.25520404,-0.0927487,24.710211,39.992819)" />
  </g>
</svg>
