<svg xmlns="http://www.w3.org/2000/svg" viewBox="0 0 512 512"><g fill="none" stroke="#13202a" stroke-linecap="round" stroke-linejoin="round" stroke-width="18"><path fill="#ffd166" d="M256 83c94 0 169 71 169 159v53c0 86-73 134-169 134S87 381 87 295v-53C87 154 162 83 256 83Z"/><path d="M179 103 138 55M333 103l41-48"/><circle cx="138" cy="55" r="17" fill="#70e58b"/><circle cx="374" cy="55" r="17" fill="#70e58b"/><circle cx="200" cy="237" r="24" fill="#fff"/><circle cx="312" cy="237" r="24" fill="#fff"/><circle cx="200" cy="237" r="9" fill="#13202a"/><circle cx="312" cy="237" r="9" fill="#13202a"/><path d="M210 319c30 24 62 24 92 0"/><path fill="#fff" d="M238 326h36v46h-36z"/></g></svg>
