<svg xmlns="http://www.w3.org/2000/svg" viewBox="0 0 512 512"><g fill="none" stroke="#14222d" stroke-linecap="round" stroke-linejoin="round" stroke-width="18"><path fill="#74e38a" d="M256 83c92 0 167 70 167 157v58c0 83-72 131-167 131S89 381 89 298v-58C89 153 164 83 256 83Z"/><path d="M180 104 142 54M332 104l38-50"/><circle cx="142" cy="54" r="18" fill="#ffd45a"/><circle cx="370" cy="54" r="18" fill="#ffd45a"/><circle cx="199" cy="239" r="26" fill="#fff"/><circle cx="313" cy="239" r="26" fill="#fff"/><circle cx="199" cy="239" r="10" fill="#14222d"/><circle cx="313" cy="239" r="10" fill="#14222d"/><path d="M203 326c31 30 75 30 106 0"/></g></svg>
