<svg xmlns="http://www.w3.org/2000/svg" viewBox="0 0 512 512"><g fill="none" stroke="#121f2b" stroke-linecap="round" stroke-linejoin="round" stroke-width="18"><path fill="#7c6bff" d="M256 82c94 0 170 72 170 159v55c0 85-74 133-170 133S86 381 86 296v-55C86 154 162 82 256 82Z"/><path d="M178 103 136 55M334 103l42-48"/><circle cx="136" cy="55" r="17" fill="#ffbf34"/><circle cx="376" cy="55" r="17" fill="#ffbf34"/><path fill="#121f2b" d="M156 219h86l-19 55h-48zM270 219h86l-19 55h-48z"/><path d="M242 234h28"/><path d="M205 330c34 23 68 23 102 0"/></g></svg>
