<svg xmlns="http://www.w3.org/2000/svg" viewBox="0 0 512 512"><g fill="none" stroke="#172433" stroke-linecap="round" stroke-linejoin="round" stroke-width="18"><path fill="#ff9cca" d="M256 84c93 0 168 70 168 158v55c0 84-73 132-168 132S88 381 88 297v-55C88 154 163 84 256 84Z"/><path d="M182 105 143 55M330 105l39-50"/><circle cx="143" cy="55" r="17" fill="#ffe36d"/><circle cx="369" cy="55" r="17" fill="#ffe36d"/><path d="M168 214c20-22 55-22 75 0M269 214c20-22 55-22 75 0M179 197l-20-21M210 190l-5-27M330 197l20-21M300 190l5-27"/><circle cx="205" cy="240" r="21" fill="#fff"/><circle cx="307" cy="240" r="21" fill="#fff"/><circle cx="205" cy="240" r="8" fill="#172433"/><circle cx="307" cy="240" r="8" fill="#172433"/><path d="M210 327c30 24 62 24 92 0"/></g></svg>
