<svg xmlns="http://www.w3.org/2000/svg" viewBox="0 0 512 512"><g fill="none" stroke="#14212b" stroke-linecap="round" stroke-linejoin="round" stroke-width="18"><path fill="#54d6a3" d="M256 84c94 0 170 72 170 159v54c0 85-74 132-170 132S86 382 86 297v-54C86 156 162 84 256 84Z"/><path fill="#293447" d="M129 169c29-55 76-85 127-85s98 30 127 85c-33-20-78-29-127-29s-94 9-127 29Z"/><path d="M181 105 141 55M331 105l40-50"/><circle cx="141" cy="55" r="17" fill="#ff8a3d"/><circle cx="371" cy="55" r="17" fill="#ff8a3d"/><circle cx="200" cy="246" r="24" fill="#fff"/><circle cx="312" cy="246" r="24" fill="#fff"/><circle cx="200" cy="246" r="9" fill="#14212b"/><circle cx="312" cy="246" r="9" fill="#14212b"/><path d="M207 333c34 24 64 24 98 0"/></g></svg>
