<svg xmlns="http://www.w3.org/2000/svg" viewBox="0 0 512 512"><g fill="none" stroke="#14222d" stroke-linecap="round" stroke-linejoin="round" stroke-width="18"><path fill="#c78dff" d="M256 86c94 0 169 70 169 158v53c0 85-73 132-169 132S87 382 87 297v-53C87 156 162 86 256 86Z"/><path fill="#ff4f6d" d="M256 73 221 149h70z"/><path d="M179 105 139 56M333 105l40-49"/><circle cx="139" cy="56" r="17" fill="#ffd45a"/><circle cx="373" cy="56" r="17" fill="#ffd45a"/><circle cx="200" cy="244" r="24" fill="#fff"/><circle cx="312" cy="244" r="24" fill="#fff"/><circle cx="200" cy="244" r="9" fill="#14222d"/><circle cx="312" cy="244" r="9" fill="#14222d"/><path d="M206 333c36 19 64 19 100 0"/></g></svg>
