<svg xmlns="http://www.w3.org/2000/svg" viewBox="0 0 512 512"><g fill="none" stroke="#13212c" stroke-linecap="round" stroke-linejoin="round" stroke-width="18"><path fill="#8de36f" d="M256 83c94 0 169 71 169 159v54c0 85-73 133-169 133S87 381 87 296v-54C87 154 162 83 256 83Z"/><path d="M179 104 139 55M333 104l40-49"/><circle cx="139" cy="55" r="17" fill="#ff8cc2"/><circle cx="373" cy="55" r="17" fill="#ff8cc2"/><circle cx="202" cy="242" r="38" fill="#fff"/><circle cx="310" cy="242" r="38" fill="#fff"/><path d="M240 242h32"/><circle cx="202" cy="242" r="10" fill="#13212c"/><circle cx="310" cy="242" r="10" fill="#13212c"/><path d="M213 334c30 22 56 22 86 0"/></g></svg>
