<svg xmlns="http://www.w3.org/2000/svg" viewBox="0 0 512 512"><g fill="none" stroke="#172536" stroke-linecap="round" stroke-linejoin="round" stroke-width="18"><path fill="#9eb7ff" d="M256 84c94 0 170 72 170 160v53c0 85-74 132-170 132S86 382 86 297v-53C86 156 162 84 256 84Z"/><path d="M180 104 140 55M332 104l40-49"/><circle cx="140" cy="55" r="17" fill="#ffd45a"/><circle cx="372" cy="55" r="17" fill="#ffd45a"/><path d="M171 238c26 18 58 18 84 0M257 238c26 18 58 18 84 0"/><path d="M222 330c22 14 46 14 68 0"/><path d="M352 154h40l-38 46h44"/></g></svg>
