<svg xmlns="http://www.w3.org/2000/svg" viewBox="0 0 512 512"><g fill="none" stroke="#14222d" stroke-linecap="round" stroke-linejoin="round" stroke-width="18"><path fill="#ff8a5c" d="M256 84c94 0 170 72 170 159v54c0 85-74 132-170 132S86 382 86 297v-54C86 156 162 84 256 84Z"/><path d="M180 104 140 55M332 104l40-49"/><circle cx="140" cy="55" r="17" fill="#70e58b"/><circle cx="372" cy="55" r="17" fill="#70e58b"/><circle cx="160" cy="175" r="18" fill="#ffe36d"/><circle cx="352" cy="177" r="20" fill="#ffe36d"/><circle cx="254" cy="150" r="14" fill="#ffe36d"/><circle cx="200" cy="244" r="24" fill="#fff"/><circle cx="312" cy="244" r="24" fill="#fff"/><circle cx="200" cy="244" r="9" fill="#14222d"/><circle cx="312" cy="244" r="9" fill="#14222d"/><path d="M207 331c34 24 64 24 98 0"/></g></svg>
