<svg xmlns="http://www.w3.org/2000/svg" viewBox="0 0 512 512"><g fill="none" stroke="#14222d" stroke-linecap="round" stroke-linejoin="round" stroke-width="18"><path fill="#ffe36d" d="M256 83c94 0 169 71 169 159v54c0 85-73 133-169 133S87 381 87 296v-54C87 154 162 83 256 83Z"/><path d="M179 104 139 55M333 104l40-49"/><circle cx="139" cy="55" r="17" fill="#ff6f9d"/><circle cx="373" cy="55" r="17" fill="#ff6f9d"/><path fill="#ff6f9d" d="m256 139 16 47 49 1-39 29 14 48-40-28-40 28 14-48-39-29 49-1z"/><circle cx="199" cy="250" r="22" fill="#fff"/><circle cx="313" cy="250" r="22" fill="#fff"/><circle cx="199" cy="250" r="8" fill="#14222d"/><circle cx="313" cy="250" r="8" fill="#14222d"/><path d="M207 334c34 24 64 24 98 0"/></g></svg>
