<svg xmlns="http://www.w3.org/2000/svg" viewBox="0 0 512 512"><g fill="none" stroke="#14222d" stroke-linecap="round" stroke-linejoin="round" stroke-width="18"><path fill="#65ffe2" d="M256 83c94 0 169 71 169 159v54c0 85-73 133-169 133S87 381 87 296v-54C87 154 162 83 256 83Z"/><path fill="#7c6bff" d="m164 165 54-46-18 66 55-48-18 68 62-52-22 75"/><path d="M179 104 139 55M333 104l40-49"/><circle cx="139" cy="55" r="17" fill="#ffbf34"/><circle cx="373" cy="55" r="17" fill="#ffbf34"/><circle cx="200" cy="244" r="24" fill="#fff"/><circle cx="312" cy="244" r="24" fill="#fff"/><circle cx="200" cy="244" r="9" fill="#14222d"/><circle cx="312" cy="244" r="9" fill="#14222d"/><path d="M207 331c34 24 64 24 98 0"/></g></svg>
