<svg xmlns="http://www.w3.org/2000/svg" viewBox="0 0 512 512"><g fill="none" stroke="#14222d" stroke-linecap="round" stroke-linejoin="round" stroke-width="18"><path fill="#62d878" d="M116 214c0-94 74-156 140-156s140 62 140 156v178H116z"/><path fill="#fff2d0" d="M164 174c28 22 156 22 184 0-18 57-166 57-184 0Z"/><path fill="#14222d" d="m205 167 18-38 18 38M271 167l18-38 18 38"/><circle cx="204" cy="249" r="20" fill="#fff"/><circle cx="308" cy="249" r="20" fill="#fff"/><path d="M215 336c30 24 52 24 82 0"/><path d="M256 58v-35M304 76l25-28M208 76l-25-28"/></g></svg>
